<mxfile host="app.diagrams.net" modified="2022-10-04T11:33:48.967Z" agent="5.0 (Windows NT 10.0; Win64; x64) AppleWebKit/537.36 (KHTML, like Gecko) Chrome/105.0.0.0 Safari/537.36 Edg/105.0.1343.53" etag="bhpyvNygeiBKN-o8A9ur" version="20.3.6" type="github">
  <diagram id="3VsCjkVI7-YLbLMpHPOf" name="第 1 页">
    <mxGraphModel dx="1037" dy="569" grid="1" gridSize="10" guides="1" tooltips="1" connect="1" arrows="1" fold="1" page="1" pageScale="1" pageWidth="980" pageHeight="1390" math="0" shadow="0">
      <root>
        <mxCell id="0" />
        <mxCell id="1" parent="0" />
        <mxCell id="aKQjNVamBWFaaSwZzb1s-1" value="(0,119)" style="ellipse;whiteSpace=wrap;html=1;aspect=fixed;" vertex="1" parent="1">
          <mxGeometry x="240" y="120" width="40" height="40" as="geometry" />
        </mxCell>
        <mxCell id="aKQjNVamBWFaaSwZzb1s-3" value="(0,118)" style="ellipse;whiteSpace=wrap;html=1;aspect=fixed;" vertex="1" parent="1">
          <mxGeometry x="240" y="200" width="40" height="40" as="geometry" />
        </mxCell>
        <mxCell id="aKQjNVamBWFaaSwZzb1s-4" value="(1,118)" style="ellipse;whiteSpace=wrap;html=1;aspect=fixed;" vertex="1" parent="1">
          <mxGeometry x="320" y="200" width="40" height="40" as="geometry" />
        </mxCell>
        <mxCell id="aKQjNVamBWFaaSwZzb1s-5" value="(118,&lt;br&gt;119)" style="ellipse;whiteSpace=wrap;html=1;aspect=fixed;" vertex="1" parent="1">
          <mxGeometry x="480" y="120" width="40" height="40" as="geometry" />
        </mxCell>
        <mxCell id="aKQjNVamBWFaaSwZzb1s-6" value="(119,&lt;br&gt;119)" style="ellipse;whiteSpace=wrap;html=1;aspect=fixed;" vertex="1" parent="1">
          <mxGeometry x="560" y="120" width="40" height="40" as="geometry" />
        </mxCell>
        <mxCell id="aKQjNVamBWFaaSwZzb1s-7" value="(1,119)" style="ellipse;whiteSpace=wrap;html=1;aspect=fixed;" vertex="1" parent="1">
          <mxGeometry x="320" y="120" width="40" height="40" as="geometry" />
        </mxCell>
        <mxCell id="aKQjNVamBWFaaSwZzb1s-8" value="(118,&lt;br&gt;118)" style="ellipse;whiteSpace=wrap;html=1;aspect=fixed;" vertex="1" parent="1">
          <mxGeometry x="480" y="200" width="40" height="40" as="geometry" />
        </mxCell>
        <mxCell id="aKQjNVamBWFaaSwZzb1s-9" value="(119,&lt;br&gt;118)" style="ellipse;whiteSpace=wrap;html=1;aspect=fixed;" vertex="1" parent="1">
          <mxGeometry x="560" y="200" width="40" height="40" as="geometry" />
        </mxCell>
        <mxCell id="aKQjNVamBWFaaSwZzb1s-10" value="(0,1)" style="ellipse;whiteSpace=wrap;html=1;aspect=fixed;" vertex="1" parent="1">
          <mxGeometry x="240" y="360" width="40" height="40" as="geometry" />
        </mxCell>
        <mxCell id="aKQjNVamBWFaaSwZzb1s-11" value="(0,0)" style="ellipse;whiteSpace=wrap;html=1;aspect=fixed;" vertex="1" parent="1">
          <mxGeometry x="240" y="440" width="40" height="40" as="geometry" />
        </mxCell>
        <mxCell id="aKQjNVamBWFaaSwZzb1s-12" value="(1,0)" style="ellipse;whiteSpace=wrap;html=1;aspect=fixed;" vertex="1" parent="1">
          <mxGeometry x="320" y="440" width="40" height="40" as="geometry" />
        </mxCell>
        <mxCell id="aKQjNVamBWFaaSwZzb1s-13" value="(1,1)" style="ellipse;whiteSpace=wrap;html=1;aspect=fixed;" vertex="1" parent="1">
          <mxGeometry x="320" y="360" width="40" height="40" as="geometry" />
        </mxCell>
        <mxCell id="aKQjNVamBWFaaSwZzb1s-14" value="(118,1)" style="ellipse;whiteSpace=wrap;html=1;aspect=fixed;" vertex="1" parent="1">
          <mxGeometry x="480" y="360" width="40" height="40" as="geometry" />
        </mxCell>
        <mxCell id="aKQjNVamBWFaaSwZzb1s-15" value="(118,0)" style="ellipse;whiteSpace=wrap;html=1;aspect=fixed;" vertex="1" parent="1">
          <mxGeometry x="480" y="440" width="40" height="40" as="geometry" />
        </mxCell>
        <mxCell id="aKQjNVamBWFaaSwZzb1s-16" value="(119,0)" style="ellipse;whiteSpace=wrap;html=1;aspect=fixed;" vertex="1" parent="1">
          <mxGeometry x="560" y="440" width="40" height="40" as="geometry" />
        </mxCell>
        <mxCell id="aKQjNVamBWFaaSwZzb1s-17" value="(119,1)" style="ellipse;whiteSpace=wrap;html=1;aspect=fixed;" vertex="1" parent="1">
          <mxGeometry x="560" y="360" width="40" height="40" as="geometry" />
        </mxCell>
        <mxCell id="aKQjNVamBWFaaSwZzb1s-18" value="" style="endArrow=none;dashed=1;html=1;dashPattern=1 3;strokeWidth=2;rounded=0;" edge="1" parent="1">
          <mxGeometry width="50" height="50" relative="1" as="geometry">
            <mxPoint x="380" y="140" as="sourcePoint" />
            <mxPoint x="460" y="140" as="targetPoint" />
          </mxGeometry>
        </mxCell>
        <mxCell id="aKQjNVamBWFaaSwZzb1s-19" value="" style="endArrow=none;dashed=1;html=1;dashPattern=1 3;strokeWidth=2;rounded=0;" edge="1" parent="1">
          <mxGeometry width="50" height="50" relative="1" as="geometry">
            <mxPoint x="380" y="219.5" as="sourcePoint" />
            <mxPoint x="460" y="219.5" as="targetPoint" />
          </mxGeometry>
        </mxCell>
        <mxCell id="aKQjNVamBWFaaSwZzb1s-20" value="" style="endArrow=none;dashed=1;html=1;dashPattern=1 3;strokeWidth=2;rounded=0;" edge="1" parent="1">
          <mxGeometry width="50" height="50" relative="1" as="geometry">
            <mxPoint x="380" y="379.5" as="sourcePoint" />
            <mxPoint x="460" y="379.5" as="targetPoint" />
          </mxGeometry>
        </mxCell>
        <mxCell id="aKQjNVamBWFaaSwZzb1s-21" value="" style="endArrow=none;dashed=1;html=1;dashPattern=1 3;strokeWidth=2;rounded=0;" edge="1" parent="1">
          <mxGeometry width="50" height="50" relative="1" as="geometry">
            <mxPoint x="380" y="459.5" as="sourcePoint" />
            <mxPoint x="460" y="459.5" as="targetPoint" />
          </mxGeometry>
        </mxCell>
        <mxCell id="aKQjNVamBWFaaSwZzb1s-22" value="" style="endArrow=none;dashed=1;html=1;dashPattern=1 3;strokeWidth=2;rounded=0;" edge="1" parent="1">
          <mxGeometry width="50" height="50" relative="1" as="geometry">
            <mxPoint x="260" y="260" as="sourcePoint" />
            <mxPoint x="260" y="340" as="targetPoint" />
          </mxGeometry>
        </mxCell>
        <mxCell id="aKQjNVamBWFaaSwZzb1s-23" value="" style="endArrow=none;dashed=1;html=1;dashPattern=1 3;strokeWidth=2;rounded=0;" edge="1" parent="1">
          <mxGeometry width="50" height="50" relative="1" as="geometry">
            <mxPoint x="339.5" y="260" as="sourcePoint" />
            <mxPoint x="339.5" y="340" as="targetPoint" />
          </mxGeometry>
        </mxCell>
        <mxCell id="aKQjNVamBWFaaSwZzb1s-24" value="" style="endArrow=none;dashed=1;html=1;dashPattern=1 3;strokeWidth=2;rounded=0;" edge="1" parent="1">
          <mxGeometry width="50" height="50" relative="1" as="geometry">
            <mxPoint x="579.5" y="260" as="sourcePoint" />
            <mxPoint x="579.5" y="340" as="targetPoint" />
          </mxGeometry>
        </mxCell>
        <mxCell id="aKQjNVamBWFaaSwZzb1s-25" value="" style="endArrow=none;dashed=1;html=1;dashPattern=1 3;strokeWidth=2;rounded=0;" edge="1" parent="1">
          <mxGeometry width="50" height="50" relative="1" as="geometry">
            <mxPoint x="499.5" y="260" as="sourcePoint" />
            <mxPoint x="499.5" y="340" as="targetPoint" />
          </mxGeometry>
        </mxCell>
        <mxCell id="aKQjNVamBWFaaSwZzb1s-26" value="" style="endArrow=none;html=1;rounded=0;exitX=1;exitY=0.5;exitDx=0;exitDy=0;entryX=0;entryY=0.5;entryDx=0;entryDy=0;" edge="1" parent="1" source="aKQjNVamBWFaaSwZzb1s-1" target="aKQjNVamBWFaaSwZzb1s-7">
          <mxGeometry width="50" height="50" relative="1" as="geometry">
            <mxPoint x="460" y="320" as="sourcePoint" />
            <mxPoint x="510" y="270" as="targetPoint" />
          </mxGeometry>
        </mxCell>
        <mxCell id="aKQjNVamBWFaaSwZzb1s-27" value="" style="endArrow=none;html=1;rounded=0;exitX=1;exitY=0.5;exitDx=0;exitDy=0;entryX=0;entryY=0.5;entryDx=0;entryDy=0;" edge="1" parent="1">
          <mxGeometry width="50" height="50" relative="1" as="geometry">
            <mxPoint x="280" y="219.5" as="sourcePoint" />
            <mxPoint x="320" y="219.5" as="targetPoint" />
          </mxGeometry>
        </mxCell>
        <mxCell id="aKQjNVamBWFaaSwZzb1s-28" value="" style="endArrow=none;html=1;rounded=0;exitX=1;exitY=0.5;exitDx=0;exitDy=0;entryX=0;entryY=0.5;entryDx=0;entryDy=0;" edge="1" parent="1">
          <mxGeometry width="50" height="50" relative="1" as="geometry">
            <mxPoint x="280" y="379.5" as="sourcePoint" />
            <mxPoint x="320" y="379.5" as="targetPoint" />
          </mxGeometry>
        </mxCell>
        <mxCell id="aKQjNVamBWFaaSwZzb1s-29" value="" style="endArrow=none;html=1;rounded=0;exitX=1;exitY=0.5;exitDx=0;exitDy=0;entryX=0;entryY=0.5;entryDx=0;entryDy=0;" edge="1" parent="1">
          <mxGeometry width="50" height="50" relative="1" as="geometry">
            <mxPoint x="280" y="459.5" as="sourcePoint" />
            <mxPoint x="320" y="459.5" as="targetPoint" />
          </mxGeometry>
        </mxCell>
        <mxCell id="aKQjNVamBWFaaSwZzb1s-30" value="" style="endArrow=none;html=1;rounded=0;exitX=1;exitY=0.5;exitDx=0;exitDy=0;entryX=0;entryY=0.5;entryDx=0;entryDy=0;" edge="1" parent="1">
          <mxGeometry width="50" height="50" relative="1" as="geometry">
            <mxPoint x="520" y="139.5" as="sourcePoint" />
            <mxPoint x="560" y="139.5" as="targetPoint" />
          </mxGeometry>
        </mxCell>
        <mxCell id="aKQjNVamBWFaaSwZzb1s-31" value="" style="endArrow=none;html=1;rounded=0;exitX=1;exitY=0.5;exitDx=0;exitDy=0;entryX=0;entryY=0.5;entryDx=0;entryDy=0;" edge="1" parent="1">
          <mxGeometry width="50" height="50" relative="1" as="geometry">
            <mxPoint x="520" y="219.5" as="sourcePoint" />
            <mxPoint x="560" y="219.5" as="targetPoint" />
          </mxGeometry>
        </mxCell>
        <mxCell id="aKQjNVamBWFaaSwZzb1s-32" value="" style="endArrow=none;html=1;rounded=0;exitX=1;exitY=0.5;exitDx=0;exitDy=0;entryX=0;entryY=0.5;entryDx=0;entryDy=0;" edge="1" parent="1">
          <mxGeometry width="50" height="50" relative="1" as="geometry">
            <mxPoint x="520" y="379.5" as="sourcePoint" />
            <mxPoint x="560" y="379.5" as="targetPoint" />
          </mxGeometry>
        </mxCell>
        <mxCell id="aKQjNVamBWFaaSwZzb1s-33" value="" style="endArrow=none;html=1;rounded=0;exitX=1;exitY=0.5;exitDx=0;exitDy=0;entryX=0;entryY=0.5;entryDx=0;entryDy=0;" edge="1" parent="1">
          <mxGeometry width="50" height="50" relative="1" as="geometry">
            <mxPoint x="520" y="459.5" as="sourcePoint" />
            <mxPoint x="560" y="459.5" as="targetPoint" />
          </mxGeometry>
        </mxCell>
        <mxCell id="aKQjNVamBWFaaSwZzb1s-34" value="" style="endArrow=none;html=1;rounded=0;entryX=0.5;entryY=1;entryDx=0;entryDy=0;exitX=0.5;exitY=0;exitDx=0;exitDy=0;" edge="1" parent="1" source="aKQjNVamBWFaaSwZzb1s-3" target="aKQjNVamBWFaaSwZzb1s-1">
          <mxGeometry width="50" height="50" relative="1" as="geometry">
            <mxPoint x="460" y="320" as="sourcePoint" />
            <mxPoint x="510" y="270" as="targetPoint" />
          </mxGeometry>
        </mxCell>
        <mxCell id="aKQjNVamBWFaaSwZzb1s-35" value="" style="endArrow=none;html=1;rounded=0;entryX=0.5;entryY=1;entryDx=0;entryDy=0;exitX=0.5;exitY=0;exitDx=0;exitDy=0;" edge="1" parent="1">
          <mxGeometry width="50" height="50" relative="1" as="geometry">
            <mxPoint x="339.5" y="200" as="sourcePoint" />
            <mxPoint x="339.5" y="160" as="targetPoint" />
          </mxGeometry>
        </mxCell>
        <mxCell id="aKQjNVamBWFaaSwZzb1s-36" value="" style="endArrow=none;html=1;rounded=0;entryX=0.5;entryY=1;entryDx=0;entryDy=0;exitX=0.5;exitY=0;exitDx=0;exitDy=0;" edge="1" parent="1">
          <mxGeometry width="50" height="50" relative="1" as="geometry">
            <mxPoint x="499.5" y="200" as="sourcePoint" />
            <mxPoint x="499.5" y="160" as="targetPoint" />
          </mxGeometry>
        </mxCell>
        <mxCell id="aKQjNVamBWFaaSwZzb1s-37" value="" style="endArrow=none;html=1;rounded=0;entryX=0.5;entryY=1;entryDx=0;entryDy=0;exitX=0.5;exitY=0;exitDx=0;exitDy=0;" edge="1" parent="1">
          <mxGeometry width="50" height="50" relative="1" as="geometry">
            <mxPoint x="579.5" y="200" as="sourcePoint" />
            <mxPoint x="579.5" y="160" as="targetPoint" />
          </mxGeometry>
        </mxCell>
        <mxCell id="aKQjNVamBWFaaSwZzb1s-38" value="" style="endArrow=none;html=1;rounded=0;entryX=0.5;entryY=1;entryDx=0;entryDy=0;exitX=0.5;exitY=0;exitDx=0;exitDy=0;" edge="1" parent="1">
          <mxGeometry width="50" height="50" relative="1" as="geometry">
            <mxPoint x="259.5" y="440" as="sourcePoint" />
            <mxPoint x="259.5" y="400" as="targetPoint" />
          </mxGeometry>
        </mxCell>
        <mxCell id="aKQjNVamBWFaaSwZzb1s-39" value="" style="endArrow=none;html=1;rounded=0;entryX=0.5;entryY=1;entryDx=0;entryDy=0;exitX=0.5;exitY=0;exitDx=0;exitDy=0;" edge="1" parent="1">
          <mxGeometry width="50" height="50" relative="1" as="geometry">
            <mxPoint x="339.5" y="440" as="sourcePoint" />
            <mxPoint x="339.5" y="400" as="targetPoint" />
          </mxGeometry>
        </mxCell>
        <mxCell id="aKQjNVamBWFaaSwZzb1s-40" value="" style="endArrow=none;html=1;rounded=0;entryX=0.5;entryY=1;entryDx=0;entryDy=0;exitX=0.5;exitY=0;exitDx=0;exitDy=0;" edge="1" parent="1">
          <mxGeometry width="50" height="50" relative="1" as="geometry">
            <mxPoint x="499.5" y="440" as="sourcePoint" />
            <mxPoint x="499.5" y="400" as="targetPoint" />
          </mxGeometry>
        </mxCell>
        <mxCell id="aKQjNVamBWFaaSwZzb1s-41" value="" style="endArrow=none;html=1;rounded=0;entryX=0.5;entryY=1;entryDx=0;entryDy=0;exitX=0.5;exitY=0;exitDx=0;exitDy=0;" edge="1" parent="1">
          <mxGeometry width="50" height="50" relative="1" as="geometry">
            <mxPoint x="579.5" y="440" as="sourcePoint" />
            <mxPoint x="579.5" y="400" as="targetPoint" />
          </mxGeometry>
        </mxCell>
      </root>
    </mxGraphModel>
  </diagram>
</mxfile>
